<svg xmlns="http://www.w3.org/2000/svg" viewBox="0 0 90.05 96.03"><defs><style>.cls-1{fill:#fff;}</style></defs><g id="Layer_2" data-name="Layer 2"><g id="Layer_1-2" data-name="Layer 1"><g id="Layer_2-2" data-name="Layer 2"><g id="Layer_1-2-2" data-name="Layer 1-2"><path class="cls-1" d="M74.66,30.6v3.3C75.43,33.25,77.91,30.91,74.66,30.6Z"/><path class="cls-1" d="M41.39,9.91l-.09-.1Z"/><path class="cls-1" d="M86.53,32c-2,.31-3.3.93-2.78-1.13S83,28.6,79.92,29a22.36,22.36,0,0,0-5.26,1.41v-4h-.52v17l-2.85,1.56c-9.39-18.17-28.53-33.71-29.9-35,24.36,27.39,14.68,34.5,14.68,34.5C62.7,40.66,69.16,44,71,45.09L54.94,53.9l-.62-.1-9.3,2-2.58,5H41.3V56.38l7-4.75c5.88-13.73-2.07-22.51-2.07-22.51C51,26.13,44.92,16,44.92,16l-3.2,1.34C45,22,41.3,30,41.3,30c4.6,7,2.94,14.27,0,20V7.66C42.42,6.29,46.36,2,49.77,5.17l.11-3.1S46.57-2.27,41.3,3.93V0h-.62V51.05a41.3,41.3,0,0,1-7.12,9.15c-4.91-16-16.48-32.32-18.79-35.48V20.45H25.92l.41-1,9-.52-5-1.24,5-1.55H14.77V9.91h-.62V24.05L5.79,19.72a79.58,79.58,0,0,1,8.36,10.64V42.85H.62V41.46H11.2L6.71,37l4.75-4.75H.62V30.36H0V51.53l4.54,9.6c21.9,5.78,53.91-.51,53.91-.51l.2,1c-36.55,6.92-53.39.62-53.39.62l3,6.4,3.1.51,2.58,5.38c13.11,2.89,38.93-.31,38.93-.31,7.85-5.69,9.5-10.53,9.5-10.53,10-3.51,11.26-10.23,11.26-10.23l-.93-.2a11.64,11.64,0,0,1-6.32,5.81l.1-.09-.77-.57-.63.38-1,.13.13-1a3.87,3.87,0,0,0,.76-.57,14.67,14.67,0,0,1,2.48-.89c1.14-.44.82-.76.82-.76a1.38,1.38,0,0,0,1.28.06A5.26,5.26,0,0,0,71,54.43a1.57,1.57,0,0,1,1.14-.7c.64,0,.38-.38.45-.7s.38-.63,0-1-1.08.45-1.46.89-1.08.83-1.46.57-.13-.38-.13-.38l-.83-1.27s.19-.32.45-.32A1.34,1.34,0,0,0,70,51c0-.38-.83-1-.83-1,.51-.44-.38-1.2-.38-1.2a1.73,1.73,0,0,0-1.72-.32c-1,.38-1.12.55-1.19.87s.37,2.88.43,3.89a1.65,1.65,0,0,1-.64,1.47l-2.6.12-.32-.63s-.13-1-.57-1.15-1.27.51-1.27.51L62,54l-.13.63A17.7,17.7,0,0,0,60,55a4.64,4.64,0,0,0-1.4.76l.13,1-.38.63-.2.74a10.61,10.61,0,0,1-2.63-3.46L74.66,44.09V34a30.68,30.68,0,0,1,4.13-1.76c1.24-.31,2.68-1,3,.21s.62,1.23,2.79.92a45.3,45.3,0,0,0,5.27-1.24l.2-1A17.76,17.76,0,0,1,86.53,32ZM.93,36.87a2.7,2.7,0,0,1,.41,3.81,2.72,2.72,0,0,1-.72.63V32.39a2.9,2.9,0,0,1,.71,4A3.39,3.39,0,0,1,.93,36.87ZM14.77,20.38V16.11C17.73,18.15,15.3,20,14.77,20.38ZM13.2,43.77,11.29,45.6,9.42,43.77Zm-7.44,0L3.85,45.6,2,43.77Zm-4.88,1L2.8,46.6.88,48.43Zm.87,4.88,2.09-2,2,2Zm5.09-1.09-2-1.91,2-1.86Zm1.48-3.79,1.92,1.87L8.32,48.43Zm.87,4.88,2.08-2,2,2Zm5.09-1.09-1.95-1.91,1.95-1.86Zm.49-17.23c.44.66.88,1.34,1.34,2.06,6.71,12.4-1.34,14.46-1.34,14.46Zm.1,17.25a10.18,10.18,0,0,1,8,.62l-8,.1Zm6.51,2.51L20.2,52.62l-2.14-1.51h0Zm-4.47,1,.22.16,2.2,1.53L18,55.5Zm2.31,4.25,1.29-1.72,2.34,1.64.12.08Zm2.17-2.88L22.49,52l.92,2.88Zm6.28,8L23.58,49.55c5.33,3.09,8.71,9.86,9.56,11.72Zm13-.41-6.57.21,6.57-4.44Zm-15,6.9a1.26,1.26,0,1,1,1.25-1.27v0a1.25,1.25,0,0,1-1.27,1.23h0Zm6.3-.17a1.26,1.26,0,1,1,1.25-1.27h0a1.25,1.25,0,0,1-1.28,1.24h0Zm5.87-.35a1.25,1.25,0,1,1,1.25-1.25A1.25,1.25,0,0,1,37.84,67.43Zm6-.52A1.25,1.25,0,1,1,45,65.57v.07a1.25,1.25,0,0,1-1.25,1.25Zm6-.65A1.25,1.25,0,1,1,51,64.92V65a1.25,1.25,0,0,1-1.26,1.24h0Zm5.91-1a1.25,1.25,0,1,1,1.11-1.37.37.37,0,0,1,0,.11,1.25,1.25,0,0,1-1.25,1.25Zm3.74-8.78,1.52-.2s.32.71-.25,1a2.23,2.23,0,0,1-1.08.19l-.13.83A2.11,2.11,0,0,1,59,57.17Zm1,2.92L60,58.5l1.46-.25,1.27.63v.51l.51.38.08.08A7,7,0,0,1,59,58.73ZM74.66,33.9V30.6C77.91,30.91,75.43,33.25,74.66,33.9Z"/><path class="cls-1" d="M78,34.18l-3.09,1.14C78.48,41,73,46.57,73,46.57L79,44C81.68,36.66,78,34.18,78,34.18Z"/><polygon class="cls-1" points="10.62 70.25 7.69 69.82 9.65 74.09 12.4 74.45 10.62 70.25"/><path class="cls-1" d="M26.19,84.24a13.76,13.76,0,0,0,14.26-.09,14.14,14.14,0,0,0,12,.78V78.81c-4.78,4.08-9.82.62-10.39.21l-1.63-1.19L38.81,79c-5.94,4.19-10.12.65-10.58.23L26.54,77.7,24.67,79c-4.89,3.55-10.31.76-11.51.07l-2.6-1.78v6C12.89,84.59,19.58,87.81,26.19,84.24Z"/><path class="cls-1" d="M49.92,88.58,48,87l-1.89,1.6c-4.93,4.18-10.17.68-10.75.27l-1.67-1.19L32,88.81c-6.1,4.19-10.4.65-10.87.19L19.4,87.5l-1.93,1.33c-5.56,3.94-11.81.09-12.07-.07h0v5.76A16.55,16.55,0,0,0,19,94.07,14.5,14.5,0,0,0,33.69,94a14.54,14.54,0,0,0,14.4-.27,14.34,14.34,0,0,0,12.34.81v-6A8.49,8.49,0,0,1,49.92,88.58Z"/></g></g></g></g></svg>