<svg width="43" height="42" viewBox="0 0 43 42" fill="none" xmlns="http://www.w3.org/2000/svg">
<g clip-path="url(#clip0)">
<path d="M33.8256 17.9438C34.0101 17.7984 34.2845 17.9344 34.2845 18.1641V27.75C34.2845 28.9922 33.2673 30 32.0136 30H12.3324C11.0787 30 10.0615 28.9922 10.0615 27.75V18.1688C10.0615 17.9344 10.3312 17.8031 10.5204 17.9484C11.5802 18.7641 12.9853 19.8 17.811 23.2734C18.8092 23.9953 20.4935 25.5141 22.173 25.5047C23.862 25.5188 25.5794 23.9672 26.5398 23.2734C31.3654 19.8 32.7658 18.7594 33.8256 17.9438ZM22.173 24C23.2706 24.0188 24.8508 22.6313 25.6456 22.0594C31.9237 17.5453 32.4015 17.1516 33.8492 16.0266C34.1236 15.8156 34.2845 15.4875 34.2845 15.1406V14.25C34.2845 13.0078 33.2673 12 32.0136 12H12.3324C11.0787 12 10.0615 13.0078 10.0615 14.25V15.1406C10.0615 15.4875 10.2224 15.8109 10.4968 16.0266C11.9445 17.1469 12.4223 17.5453 18.7004 22.0594C19.4952 22.6313 21.0754 24.0188 22.173 24Z" fill="#ECF0FA"/>
</g>
<circle cx="21.978" cy="21" r="20.5" stroke="#ECF0FA"/>
<defs>
<clipPath id="clip0">
<rect width="24.223" height="24" fill="white" transform="translate(10.0615 9)"/>
</clipPath>
</defs>
</svg>
